# AST/ASF file generated using VICON BodyLanguage
# -----------------------------------------------
:version 1.10
:name VICON
:units
  mass 1.0
  length 0.45
  angle deg
:documentation
   .ast/.asf automatically generated from VICON data using
   VICON BodyBuilder and BodyLanguage model FoxedUp or BRILLIANT.MOD
:root
   order TX TY TZ RX RY RZ
   axis XYZ
   position 0 0 0  
   orientation 0 0 0 
:bonedata
  begin
     id 1 
     name lhipjoint
     direction 0.612567 -0.751349 0.245431 
     length 2.42285 
     axis 0 0 0  XYZ
  end
  begin
     id 2 
     name lfemur
     direction 0.34202 -0.939693 0  
     length 7.11304  
     axis 0 0 20  XYZ
    dof rx ry rz
    limits (-160.0 20.0)
           (-70.0 70.0)
           (-60.0 70.0)
  end
  begin
     id 3 
     name ltibia
     direction 0.34202 -0.939693 0   
     length 7.84529   
     axis 0 0 20   XYZ
    dof rx
    limits (-10.0 170.0)
  end
  begin
     id 4 
     name lfoot
     direction 0.0779239 -0.214094 0.9737   
     length 1.97176   
     axis -90 7.62852e-016 20   XYZ
    dof rx rz
    limits (-45.0 90.0)
           (-70.0 20.0)
  end
  begin
     id 5 
     name ltoes
     direction 1.53565e-011 -4.21709e-011 1   
     length 0.993197   
     axis -90 7.62852e-016 20   XYZ
    dof rx
    limits (-90.0 20.0)
  end
  begin
     id 6 
     name rhipjoint
     direction -0.665722 -0.709315 0.231701   
     length 2.56642  
     axis 0 0 0  XYZ 
  end
  begin
     id 7 
     name rfemur
     direction -0.34202 -0.939693 0   
     length 7.32108   
     axis 0 0 -20   XYZ
    dof rx ry rz
    limits (-160.0 20.0)
           (-70.0 70.0)
           (-70.0 60.0)
  end
  begin
     id 8 
     name rtibia
     direction -0.34202 -0.939693 0   
     length 7.81254   
     axis 0 0 -20   XYZ
    dof rx
    limits (-10.0 170.0)
 end
 begin
     id 9 
     name rfoot
     direction -0.0832806 -0.228812 0.969902   
     length 2.08278  
     axis -90 -7.62852e-016 -20   XYZ
    dof rx rz
    limits (-45.0 90.0)
           (-20.0 70.0)
  end
  begin
     id 10 
     name rtoes
     direction -1.53589e-011 -4.22086e-011 1   
     length 1.04609   
     axis -90 -7.62852e-016 -20   XYZ
    dof rx
    limits (-90.0 20.0)
  end
  begin
     id 11 
     name lowerback
     direction -0.00506013 0.988403 -0.151766   
     length 2.01978   
     axis 0 0 0   XYZ
    dof rx ry rz
    limits (-20.0 45.0)
           (-30.0 30.0)
           (-30.0 30.0)
  end
  begin
     id 12 
     name upperback
     direction -0.00836389 0.99968 0.0238859   
     length 2.01276   
     axis 0 0 0   XYZ
    dof rx ry rz
    limits (-20.0 45.0)
           (-30.0 30.0)
           (-30.0 30.0)
  end
  begin
     id 13 
     name thorax
     direction -0.00684136 0.995386 0.0957043   
     length 2.07303   
     axis 0 0 0   XYZ
    dof rx ry rz
    limits (-20.0 45.0)
           (-30.0 30.0)
           (-30.0 30.0)
  end
  begin
     id 14 
     name lowerneck
     direction -0.0161045 0.999661 0.0204485   
     length 1.91243   
     axis 0 0 0   XYZ
    dof rx ry rz
    limits (-20.0 45.0)
           (-30.0 30.0)
           (-30.0 30.0)
  end
  begin
     id 15 
     name upperneck
     direction 0.0553583 0.990946 -0.122319   
     length 1.91574   
     axis 0 0 0   XYZ
    dof rx ry rz
    limits (-20.0 45.0)
           (-30.0 30.0)
           (-30.0 30.0)
  end
  begin
     id 16
     name head
     direction 0.0180273 0.998839 -0.0446756  
     length 1.92693  
     axis 0 0 0   XYZ
    dof rx ry rz
    limits (-20.0 45.0)
           (-30.0 30.0)
           (-30.0 30.0)
  end
  begin
     id 17 
     name lclavicle
     direction 0.945646 0.319323 -0.0615358  
     length 4.0076  
     axis 0 0 0   XYZ
    dof ry rz
    limits (-20.0 10.0)
           (0.0 20.0)
  end
  begin
     id 18 
     name lhumerus
     direction 1 -4.48967e-011 -2.79996e-027   
     length 5.64147   
     axis 180 -30 -90   XYZ
    dof rx ry rz
    limits (-60.0 90.0)
           (-90.0 90.0)
           (-90.0 90.0)
  end
  begin
     id 19
     name lradius
     direction 1 -4.48976e-011 -9.5122e-027   
     length 2.86444   
     axis 180 -30 -90   XYZ
    dof rx
    limits (-10.0 170.0)
  end
  begin
     id 20
     name lwrist
     direction 1 -4.48983e-011 -1.24047e-026   
     length 1.43222   
     axis 9.05591e-015 90 90   XYZ
    dof ry
    limits (-180.0 0.0)
 end
  begin
     id 21 
     name lhand
     direction 1 -4.4892e-011 -2.48094e-026   
     length 0.722123   
     axis 1.58305e-014 90 90   XYZ
    dof rx rz
    limits (-90.0 90.0)
           (-45.0 45.0)
  end
  begin
     id 22 
     name lfingers
     direction 1 -4.48895e-011 -4.96187e-026   
     length 0.582194   
     axis 3.1661e-014 90 90   XYZ
    dof rx
    limits (0.0 90.0)
  end
  begin
     id 23
     name lthumb
     direction 0.707107 -6.34961e-011 0.707107   
     length 0.835918   
     axis -90 45 2.85299e-015   XYZ
    dof rx rz
    limits (-45.0 45.0)
           (-45.0 45.0)
  end
  begin
     id 24 
     name rclavicle
     direction -0.932635 0.324218 -0.15835   
     length 3.65819  
     axis 0 0 0   XYZ 
    dof ry rz
    limits (-10.0 20.0)
           (-20.0 0.0)
  end
  begin
     id 25 
     name rhumerus
     direction -1 -4.48965e-011 -4.02296e-027  
     length 5.44729   
     axis 180 30 90   XYZ
    dof rx ry rz
    limits (-90.0 60.0)
           (-90.0 90.0)
           (-90.0 90.0)
  end
  begin
     id 26 
     name rradius
     direction -1 -4.48957e-011 -8.81087e-027   
     length 3.08821   
     axis 180 30 90   XYZ
    dof rx
    limits (-10.0 170.0)
  end
  begin
     id 27 
     name rwrist
     direction -1 -4.49015e-011 -1.24047e-026   
     length 1.5441   
     axis 9.05591e-015 -90 -90   XYZ
    dof ry
    limits (-180.0 0.0)
  end
  begin
     id 28
     name rhand
     direction -1 -4.4891e-011 -2.48094e-026   
     length 0.821049   
     axis 1.58305e-014 -90 -90   XYZ
    dof rx rz
    limits (-90.0 90.0)
           (-45.0 45.0)
  end
  begin
     id 29
     name rfingers
     direction -1 -4.48985e-011 -4.96187e-026   
     length 0.661951   
     axis 3.1661e-014 -90 -90   XYZ
    dof rx
    limits (0.0 90.0)
  end
  begin
     id 30
     name rthumb
     direction -0.707107 -6.34906e-011 0.707107   
     length 0.950433   
     axis -90 -45 -2.85299e-015   XYZ
    dof rx rz
    limits (-45.0 45.0)
           (-45.0 45.0)
  end
:hierarchy
  begin
    root lhipjoint rhipjoint lowerback
    lhipjoint lfemur
    lfemur ltibia
    ltibia lfoot
    lfoot ltoes
    rhipjoint rfemur
    rfemur rtibia
    rtibia rfoot
    rfoot rtoes
    lowerback upperback
    upperback thorax
    thorax lowerneck lclavicle rclavicle
    lowerneck upperneck
    upperneck head
    lclavicle lhumerus
    lhumerus lradius
    lradius lwrist
    lwrist lhand lthumb
    lhand lfingers
    rclavicle rhumerus
    rhumerus rradius
    rradius rwrist
    rwrist rhand rthumb
    rhand rfingers
  end

#!OML:ASF F:\VICON\USERDATA\INSTALL\rory3\rory3.ASF
:FULLY-SPECIFIED
:DEGREES
1344
root 3.4711 17.6114 -0.0750909 -217.286 87.4044 -213.043
lowerback 0.815004 -1.24689 1.92121
upperback -2.84008 -1.62724 -1.37244
thorax -3.47293 -0.873223 -2.42769
lowerneck -4.11979 -5.30966 -4.55959
upperneck 3.98608 -7.08352 5.46302
head 2.3932 -3.45618 2.30745
rclavicle 5.01931e-015 -8.62228e-015
rhumerus -74.3024 29.9059 -91.2098
rradius 90.4803
rwrist -52.4108
rhand 26.3899 6.02821
rfingers 7.12502
rthumb 50.4341 -14.9636
lclavicle 5.01931e-015 -8.62228e-015
lhumerus -19.6741 35.1084 16.4345
lradius 95.6243
lwrist 10.2031
lhand -5.28451 37.5313
lfingers 7.12502
lthumb 20.52 66.4668
rfemur 4.95513 5.62153 17.1668
rtibia 16.6444
rfoot -23.5145 -12.4568
rtoes -8.26567
lfemur 5.37372 0.237952 -18.356
ltibia 8.92168
lfoot -10.4984 -2.88788
ltoes -0.376235
1345
root 3.4731 17.6103 -0.0796129 -215.417 87.3104 -211.163
lowerback 0.728858 -1.26068 2.11434
upperback -2.83656 -1.64084 -1.32211
thorax -3.42589 -0.884106 -2.48551
lowerneck -4.16304 -5.32525 -4.6109
upperneck 4.04793 -7.10721 5.56992
head 2.43106 -3.46465 2.35003
rclavicle -1.21995e-014 -1.18475e-014
rhumerus -74.3342 29.7677 -91.1569
rradius 90.4975
rwrist -52.4632
rhand 26.396 6.03937
rfingers 7.12502
rthumb 50.4396 -14.9494
lclavicle -1.21995e-014 -1.18475e-014
lhumerus -19.4224 35.2836 16.6389
lradius 95.5751
lwrist 10.2277
lhand -4.92135 37.3304
lfingers 7.12502
lthumb 20.869 66.228
rfemur 4.98506 5.49578 17.1671
rtibia 16.6804
rfoot -23.6065 -12.3104
rtoes -7.84501
lfemur 5.39369 0.111132 -18.349
ltibia 8.90028
lfoot -10.5175 -2.88772
ltoes 0.138936
1346
root 3.47214 17.6107 -0.0822235 -215.115 87.2245 -210.86
lowerback 0.676089 -1.24894 2.2406
upperback -2.85736 -1.62154 -1.283
thorax -3.4192 -0.87741 -2.51773
lowerneck -4.05879 -5.33851 -4.63386
upperneck 3.98198 -7.12651 5.60916
head 2.39414 -3.47548 2.36917
rclavicle -2.00648e-015 7.23079e-015
rhumerus -74.4095 29.6235 -91.1211
rradius 90.5028
rwrist -52.3777
rhand 26.4003 6.19842
rfingers 7.12502
rthumb 50.4436 -14.7883
lclavicle -2.00648e-015 7.23079e-015
lhumerus -19.2085 35.2675 16.8809
lradius 95.5798
lwrist 10.1723
lhand -4.75714 37.2048
lfingers 7.12502
lthumb 21.0267 66.0849
rfemur 4.99983 5.41784 17.1192
rtibia 16.6919
rfoot -23.5972 -12.3087
rtoes -7.77463
lfemur 5.37455 0.0326703 -18.3956
ltibia 8.90544
lfoot -10.5244 -2.87133
ltoes 0.244375
1347
root 3.46837 17.6112 -0.0834564 -215.368 87.1886 -211.121
lowerback 0.681764 -1.23649 2.34741
upperback -2.89156 -1.60021 -1.22441
thorax -3.45805 -0.869614 -2.51758
lowerneck -3.96469 -5.36384 -4.62564
upperneck 3.87967 -7.1583 5.56773
head 2.34209 -3.49437 2.35519
rclavicle 2.5345e-015 -1.83876e-015
rhumerus -74.5035 29.6012 -91.1184
rradius 90.5492
rwrist -52.3832
rhand 26.3711 6.16937
rfingers 7.12502
rthumb 50.4169 -14.8317
lclavicle 2.5345e-015 -1.83876e-015
lhumerus -19.1344 35.1923 17.0341
lradius 95.5711
lwrist 10.0047
lhand -4.55812 37.0058
lfingers 7.12502
lthumb 21.2179 65.8646
rfemur 5.00267 5.39596 17.077
rtibia 16.6536
rfoot -23.5116 -12.356
rtoes -7.98148
lfemur 5.30668 0.00994786 -18.4256
ltibia 8.97552
lfoot -10.5478 -2.87481
ltoes 0.245357
1348
root 3.46625 17.6122 -0.084137 -214.727 87.2137 -210.469
lowerback 0.689122 -1.23507 2.49518
upperback -2.88839 -1.5926 -1.13842
thorax -3.46039 -0.868829 -2.51194
lowerneck -4.09839 -5.36273 -4.62991
upperneck 3.97904 -7.15279 5.50812
head 2.3965 -3.49074 2.33263
rclavicle 9.13167e-015 -1.49089e-015
rhumerus -74.4911 29.644 -91.084
rradius 90.6001
rwrist -52.4171
rhand 26.2654 6.12458
rfingers 7.12502
rthumb 50.3203 -14.9283
lclavicle 9.13167e-015 -1.49089e-015
lhumerus -19.1528 35.17 17.1315
lradius 95.5953
lwrist 9.90341
lhand -4.35949 37.0138
lfingers 7.12502
lthumb 21.4087 65.851
rfemur 5.00432 5.39852 17.1212
rtibia 16.6593
rfoot -23.5086 -12.3425
rtoes -7.95756
lfemur 5.32498 0.0118499 -18.3781
ltibia 8.93547
lfoot -10.5227 -2.84492
ltoes -0.276452
1349
root 3.4651 17.6122 -0.0863634 -213.516 87.2501 -209.257
lowerback 0.623115 -1.2335 2.70028
upperback -2.85878 -1.58647 -1.09166
thorax -3.397 -0.869741 -2.58077
lowerneck -4.16514 -5.33221 -4.54531
upperneck 3.97789 -7.11182 5.45814
head 2.39943 -3.46922 2.301
rclavicle 9.44227e-016 2.08724e-015
rhumerus -74.4401 29.6842 -91.0913
rradius 90.5988
rwrist -52.5591
rhand 26.1874 6.17519
rfingers 7.12502
rthumb 50.249 -14.9158
lclavicle 9.44227e-016 2.08724e-015
lhumerus -19.1294 35.0946 17.1574
lradius 95.6
lwrist 9.97048
lhand -4.53522 37.1163
lfingers 7.12502
lthumb 21.2399 65.9725
rfemur 4.99114 5.39576 17.1839
rtibia 16.6678
rfoot -23.495 -12.3718
rtoes -7.96455
lfemur 5.35339 0.00963042 -18.3103
ltibia 8.8785
lfoot -10.4709 -2.82151
ltoes -0.155724
1350
root 3.46487 17.6131 -0.0875768 -215.617 87.1564 -211.386
lowerback 0.495111 -1.19538 2.69362
upperback -2.83966 -1.53919 -1.10839
thorax -3.30201 -0.844541 -2.599
lowerneck -3.97235 -5.33598 -4.48622
upperneck 3.7414 -7.11774 5.45742
head 2.28295 -3.47548 2.29569
rclavicle 6.08778e-015 5.1684e-015
rhumerus -74.4094 29.6225 -91.0344
rradius 90.5685
rwrist -52.6435
rhand 26.2465 6.31289
rfingers 7.12502
rthumb 50.303 -14.7493
lclavicle 6.08778e-015 5.1684e-015
lhumerus -18.9643 35.0271 17.3139
lradius 95.6467
lwrist 10.0598
lhand -4.61094 37.2595
lfingers 7.12502
lthumb 21.1672 66.124
rfemur 4.95883 5.37701 17.0147
rtibia 16.689
rfoot -23.4845 -12.3546
rtoes -8.11904
lfemur 5.37032 -0.00673963 -18.4664
ltibia 8.77992
lfoot -10.4271 -2.81694
ltoes 0.0351866
1351
root 3.4639 17.6131 -0.088507 -216.145 87.1233 -211.934
lowerback 0.39423 -1.14858 2.80725
upperback -2.81573 -1.47712 -1.11204
thorax -3.21959 -0.815183 -2.67113
lowerneck -3.88439 -5.35472 -4.52224
upperneck 3.63191 -7.14397 5.55507
head 2.23876 -3.48844 2.33627
rclavicle -6.18717e-015 6.36111e-015
rhumerus -74.4137 29.5829 -90.9906
rradius 90.5429
rwrist -52.6934
rhand 26.2844 6.38762
rfingers 7.12502
rthumb 50.3377 -14.656
lclavicle -6.18717e-015 6.36111e-015
lhumerus -18.7669 35.022 17.5022
lradius 95.6823
lwrist 9.93177
lhand -4.50777 37.249
lfingers 7.12502
lthumb 21.2663 66.1023
rfemur 4.91932 5.36532 16.9565
rtibia 16.7237
rfoot -23.5017 -12.3755
rtoes -8.36855
lfemur 5.40793 -0.0159302 -18.515
ltibia 8.64304
lfoot -10.3847 -2.83153
ltoes 0.349121
1352
root 3.46279 17.6137 -0.0886897 -217.214 87.0768 -213.012
lowerback 0.374896 -1.13763 2.84949
upperback -2.79542 -1.46246 -1.10632
thorax -3.1877 -0.808299 -2.69006
lowerneck -4.03889 -5.34164 -4.56826
upperneck 3.71622 -7.12492 5.62451
head 2.29961 -3.47489 2.36442
rclavicle 3.18055e-015 -8.74653e-015
rhumerus -74.3677 29.6503 -91.0036
rradius 90.5198
rwrist -52.7735
rhand 26.1969 6.32035
rfingers 7.12502
rthumb 50.2577 -14.766
lclavicle 3.18055e-015 -8.74653e-015
lhumerus -18.7977 34.8859 17.4174
lradius 95.7492
lwrist 9.98989
lhand -4.5341 37.3081
lfingers 7.12502
lthumb 21.241 66.1643
rfemur 4.87167 5.36003 16.8649
rtibia 16.7968
rfoot -23.5593 -12.3285
rtoes -8.20049
lfemur 5.49555 -0.0188722 -18.5933
ltibia 8.43861
lfoot -10.313 -2.78966
ltoes 0.471358
1353
root 3.46086 17.6141 -0.0875568 -217.707 87.0598 -213.512
lowerback 0.39478 -1.14406 2.88579
upperback -2.77961 -1.46944 -1.07065
thorax -3.18307 -0.812134 -2.67313
lowerneck -4.23752 -5.33592 -4.5654
upperneck 3.82218 -7.11274 5.58241
head 2.36823 -3.46623 2.3452
rclavicle 1.27968e-014 2.0276e-014
rhumerus -74.365 29.8059 -91.0265
rradius 90.5881
rwrist -52.8921
rhand 26.1363 6.2059
rfingers 7.12502
rthumb 50.2023 -14.91
lclavicle 1.27968e-014 2.0276e-014
lhumerus -18.964 34.5144 17.1371
lradius 95.765
lwrist 10.4229
lhand -4.90677 37.4361
lfingers 7.12502
lthumb 20.883 66.3321
rfemur 4.83909 5.36166 16.8227
rtibia 16.8426
rfoot -23.6481 -12.2001
rtoes -7.53836
lfemur 5.55662 -0.0154455 -18.6282
ltibia 8.3124
lfoot -10.2573 -2.77016
ltoes 0.462395
1354
root 3.45746 17.6151 -0.0852458 -218.93 87.0493 -214.77
lowerback 0.401759 -1.1534 2.888
upperback -2.79414 -1.48091 -1.05222
thorax -3.20238 -0.818063 -2.65465
lowerneck -4.2981 -5.33432 -4.56075
upperneck 3.89307 -7.11018 5.55492
head 2.40119 -3.46427 2.33353
rclavicle -1.0958e-014 -1.19271e-014
rhumerus -74.4203 29.9339 -91.0738
rradius 90.6145
rwrist -52.9093
rhand 26.1698 6.22817
rfingers 7.12502
rthumb 50.2329 -14.8714
lclavicle -1.0958e-014 -1.19271e-014
lhumerus -19.093 34.21 16.8564
lradius 95.7253
lwrist 10.707
lhand -5.35502 37.6195
lfingers 7.12502
lthumb 20.4523 66.5623
rfemur 4.76647 5.39107 16.7581
rtibia 16.8819
rfoot -23.6502 -12.1565
rtoes -7.34872
lfemur 5.57935 0.0182262 -18.6955
ltibia 8.19356
lfoot -10.1011 -2.78553
ltoes 0.598358
1355
root 3.45554 17.6155 -0.0836088 -219.212 87.0742 -215.054
lowerback 0.39565 -1.13185 2.9843
upperback -2.79223 -1.45038 -1.05127
thorax -3.19766 -0.805271 -2.70899
lowerneck -4.28755 -5.35291 -4.53267
upperneck 3.97034 -7.14021 5.56141
head 2.42571 -3.47808 2.32913
rclavicle -2.45996e-015 -9.93923e-016
rhumerus -74.4433 29.901 -91.055
rradius 90.6766
rwrist -52.9551
rhand 26.3593 6.09215
rfingers 7.12502
rthumb 50.4061 -14.9147
lclavicle -2.45996e-015 -9.93923e-016
lhumerus -19.0358 34.1752 16.8309
lradius 95.7156
lwrist 10.6987
lhand -5.34282 37.5798
lfingers 7.12502
lthumb 20.464 66.5214
rfemur 4.7432 5.41912 16.7631
rtibia 16.8971
rfoot -23.6622 -12.1238
rtoes -6.96687
lfemur 5.59473 0.0469813 -18.6915
ltibia 8.15186
lfoot -10.0349 -2.77574
ltoes 0.381546
1356
root 3.45486 17.615 -0.0826885 -219.726 87.0956 -215.557
lowerback 0.381311 -1.08161 3.09331
upperback -2.77357 -1.38237 -1.06785
thorax -3.16898 -0.773838 -2.79021
lowerneck -4.32994 -5.37547 -4.55437
upperneck 4.03686 -7.17259 5.61139
head 2.46119 -3.49194 2.34695
rclavicle -1.3741e-014 -1.33186e-014
rhumerus -74.5134 29.8331 -91.06
rradius 90.7269
rwrist -52.8823
rhand 26.3649 6.10322
rfingers 7.12502
rthumb 50.4112 -14.9009
lclavicle -1.3741e-014 -1.33186e-014
lhumerus -18.9095 34.1987 16.921
lradius 95.7044
lwrist 10.6545
lhand -5.34552 37.5412
lfingers 7.12502
lthumb 20.4614 66.4831
rfemur 4.73258 5.45262 16.7416
rtibia 16.918
rfoot -23.6769 -12.0818
rtoes -6.74865
lfemur 5.62342 0.0799006 -18.6998
ltibia 8.12678
lfoot -10.0888 -2.75483
ltoes 0.121411
1357
root 3.45281 17.615 -0.0817981 -219.373 87.1711 -215.227
lowerback 0.368592 -1.03856 3.27102
upperback -2.78881 -1.32114 -1.06195
thorax -3.17787 -0.748099 -2.88625
lowerneck -4.22123 -5.38352 -4.56396
upperneck 3.95538 -7.18451 5.6364
head 2.41644 -3.49953 2.35945
rclavicle -7.97623e-015 1.80894e-014
rhumerus -74.6412 29.8485 -91.0978
rradius 90.7978
rwrist -52.9141
rhand 26.3651 6.17642
rfingers 7.12502
rthumb 50.4114 -14.8276
lclavicle -7.97623e-015 1.80894e-014
lhumerus -18.8415 34.2115 16.972
lradius 95.6774
lwrist 10.6744
lhand -5.43433 37.4835
lfingers 7.12502
lthumb 20.3761 66.4345
rfemur 4.6904 5.49914 16.7817
rtibia 16.9144
rfoot -23.6738 -12.0448
rtoes -6.59251
lfemur 5.59337 0.127746 -18.6302
ltibia 8.13822
lfoot -10.109 -2.743
ltoes -0.0358209
